<?xml version="1.0" encoding="UTF-8" standalone="no"?>
<svg
   xmlns:osb="http://www.openswatchbook.org/uri/2009/osb"
   xmlns:dc="http://purl.org/dc/elements/1.1/"
   xmlns:cc="http://creativecommons.org/ns#"
   xmlns:rdf="http://www.w3.org/1999/02/22-rdf-syntax-ns#"
   xmlns:svg="http://www.w3.org/2000/svg"
   xmlns="http://www.w3.org/2000/svg"
   xmlns:sodipodi="http://sodipodi.sourceforge.net/DTD/sodipodi-0.dtd"
   xmlns:inkscape="http://www.inkscape.org/namespaces/inkscape"
   sodipodi:docname="pcboutlineJoined.svg"
   inkscape:version="1.0 (4035a4fb49, 2020-05-01)"
   id="svg8"
   version="1.1"
   viewBox="0 0 210 297"
   height="297mm"
   width="210mm">
  <defs
     id="defs2">
    <linearGradient
       osb:paint="solid"
       id="linearGradient837">
      <stop
         id="stop835"
         offset="0"
         style="stop-color:#000000;stop-opacity:1;" />
    </linearGradient>
  </defs>
  <sodipodi:namedview
     inkscape:window-maximized="1"
     inkscape:window-y="0"
     inkscape:window-x="0"
     inkscape:window-height="703"
     inkscape:window-width="1366"
     showgrid="false"
     inkscape:document-rotation="0"
     inkscape:current-layer="layer1"
     inkscape:document-units="mm"
     inkscape:cy="78.284658"
     inkscape:cx="55.100331"
     inkscape:zoom="0.7"
     inkscape:pageshadow="2"
     inkscape:pageopacity="0.0"
     borderopacity="1.0"
     bordercolor="#666666"
     pagecolor="#ffffff"
     id="base" />
  <metadata
     id="metadata5">
    <rdf:RDF>
      <cc:Work
         rdf:about="">
        <dc:format>image/svg+xml</dc:format>
        <dc:type
           rdf:resource="http://purl.org/dc/dcmitype/StillImage" />
        <dc:title></dc:title>
      </cc:Work>
    </rdf:RDF>
  </metadata>
  <g
     id="layer1"
     inkscape:groupmode="layer"
     inkscape:label="Layer 1">
    <path
       d="m 5.8102764,1.158837 c -2.7699999,0 -5.00021159,2.230213 -5.00021159,5.000213 v 71.349649 c 0,2.77 2.23021169,4.999694 5.00021159,4.999694 H 101.66386 c 2.77,0 5.00021,-2.229694 5.00021,-4.999694 V 29.436697 c 0,-2.938076 2.22919,-4.57698 4.99918,-4.57698 h 11.75019 c 2.77,0 5.00072,-2.230218 5.00072,-5.000212 V 6.15905 c 0,-2.769995 -2.23021,-5.000213 -5.00021,-5.000213 h -11.75018 -9.99991 z M 29.207297,6.258784 H 43.206959 V 20.258962 H 29.207297 Z m 19.05,0 h 14.00018 v 14.000178 h -14.00018 z m 19.049999,0 H 81.307477 V 20.258962 H 67.307296 Z m 19.050519,0 H 100.358 V 20.258962 H 86.357815 Z m -57.150518,19.05 H 43.206959 V 39.308962 H 29.207297 Z m 19.05,0 h 14.00018 v 14.000178 h -14.00018 z m 19.049999,0 H 81.307477 V 39.308962 H 67.307296 Z m 19.050519,0 H 100.358 V 39.308962 H 86.357815 Z m -57.150518,19.05 H 43.206959 V 58.358962 H 29.207297 Z m 19.05,0 h 14.00018 v 14.000178 h -14.00018 z m 19.049999,0 H 81.307477 V 58.358962 H 67.307296 Z m 19.050519,0 H 100.358 V 58.358962 H 86.357815 Z m -57.150518,19.05 H 43.206959 V 77.408962 H 29.207297 Z m 19.05,0 h 14.00018 v 14.000178 h -14.00018 z m 19.049999,0 H 81.307477 V 77.408962 H 67.307296 Z m 19.050519,0 H 100.358 V 77.408962 H 86.357815 Z"
       style="fill:none;stroke:#000000;stroke-width:0.296087;stroke-miterlimit:4;stroke-dasharray:none;stroke-opacity:1"
       id="rect849" />
  </g>
</svg>
